<?xml version="1.0" encoding="iso-8859-1"?>
<!-- Uploaded to: SVG Repo, www.svgrepo.com, Generator: SVG Repo Mixer Tools -->
<svg fill="#000000" height="800px" width="800px" version="1.1" id="Layer_1" xmlns="http://www.w3.org/2000/svg" xmlns:xlink="http://www.w3.org/1999/xlink" 
	 viewBox="0 0 512 512" xml:space="preserve">
<g>
	<g>
		<g>
			<path d="M170.667,320c11.776,0,21.333-9.579,21.333-21.333c0-11.755-9.557-21.333-21.333-21.333
				c-11.776,0-21.333,9.579-21.333,21.333C149.333,310.421,158.891,320,170.667,320z"/>
			<path d="M448,85.333H64c-35.285,0-64,28.715-64,64v21.333h512v-21.333C512,114.048,483.285,85.333,448,85.333z"/>
			<path d="M0,362.667c0,35.285,28.715,64,64,64h384c35.285,0,64-28.715,64-64V213.333H0V362.667z M170.667,234.667
				c27.776,0,51.243,17.899,60.075,42.667H384c11.797,0,21.333,9.557,21.333,21.333S395.797,320,384,320h-21.333v21.333
				c0,11.776-9.536,21.333-21.333,21.333c-11.797,0-21.333-9.557-21.333-21.333V320h-89.259
				c-8.832,24.768-32.299,42.667-60.075,42.667c-35.285,0-64-28.715-64-64S135.381,234.667,170.667,234.667z"/>
		</g>
	</g>
</g>
</svg>