<?xml version="1.0" encoding="UTF-8"?>
<svg version="1.1" xmlns="http://www.w3.org/2000/svg" width="1024" height="1024">
<path d="M0 0 C337.92 0 675.84 0 1024 0 C1024 337.92 1024 675.84 1024 1024 C686.08 1024 348.16 1024 0 1024 C0 686.08 0 348.16 0 0 Z " fill="#F6F4F1" transform="translate(0,0)"/>
<path d="M0 0 C1.20849609 0.56654297 1.20849609 0.56654297 2.44140625 1.14453125 C9.42521611 4.85503055 14.52416758 10.2506396 19.953125 15.87890625 C22.89872478 18.93074375 26.01021555 21.71578978 29.2421875 24.4609375 C31.65873348 26.57675776 33.87809793 28.86614905 36.12646484 31.15771484 C37.93431894 32.93541448 39.79656374 34.59735265 41.71875 36.25 C45.91314694 39.89746914 49.96654617 43.67624955 54 47.5 C55.49855671 48.91551409 56.99725804 50.33087509 58.49609375 51.74609375 C59.24745605 52.45620605 59.99881836 53.16631836 60.77294922 53.89794922 C64.19493454 57.1278652 67.62816166 60.34572924 71.0625 63.5625 C75.11391269 67.35725304 79.16418358 71.15315125 83.20703125 74.95703125 C89.60638717 80.97482548 96.01526855 86.97153591 102.5703125 92.8203125 C105.44393533 95.39825709 108.28442786 98.01077354 111.125 100.625 C120.78845406 109.50055742 130.79129422 117.97762868 140.76025391 126.50585938 C144.24137799 129.48434022 147.71881821 132.46704804 151.19384766 135.45263672 C153.05584517 137.04784356 154.92420908 138.6353794 156.79296875 140.22265625 C162.92526744 145.45160907 168.97124739 150.75513185 174.75 156.375 C175.69359375 157.29023438 176.6371875 158.20546875 177.609375 159.1484375 C182.33873157 164.78966348 183.58507637 170.12236707 183.33984375 177.29296875 C182.44574558 184.4149231 178.73642255 188.99803163 173.28515625 193.4609375 C166.16231677 198.25820033 158.30609507 200.13577287 149.8125 200.1875 C148.76707031 200.20167969 147.72164062 200.21585938 146.64453125 200.23046875 C143.55186114 200.03489797 140.79451016 199.60978347 137.7722168 198.9855957 C136.876978 198.80205032 135.9817392 198.61850494 135.05937195 198.42939758 C134.37977921 198.28769638 133.70018646 198.14599518 133 198 C132.99413376 199.04045975 132.98826752 200.08091949 132.98222351 201.15290833 C132.9248215 210.9947311 132.85196958 220.83633663 132.76428509 230.67793751 C132.71970233 235.73669124 132.68041996 240.79536668 132.65356445 245.85424805 C132.6274103 250.74328935 132.58692348 255.63202738 132.53681374 260.52087975 C132.52022652 262.37898654 132.50866184 264.2371457 132.50238609 266.09531593 C132.45047034 280.06353707 132.1753114 293.10912524 122.21484375 303.94140625 C114.66806027 311.12810464 106.57513134 312.45094142 96.41810608 312.40113831 C95.38841672 312.40793498 94.35872736 312.41473164 93.29783529 312.42173427 C89.86650273 312.44064126 86.43552909 312.43827362 83.00415039 312.43579102 C80.53631636 312.44477242 78.06848654 312.45498154 75.60066223 312.46632385 C69.60469606 312.49003978 63.60886964 312.49948462 57.61286957 312.50116099 C52.73710841 312.50258989 47.86137628 312.50877115 42.98562431 312.51826286 C29.14438238 312.54465733 15.30321002 312.55852445 1.46194274 312.55627144 C0.34443221 312.55609164 0.34443221 312.55609164 -0.7956543 312.5559082 C-1.5415766 312.55578556 -2.28749891 312.55566292 -3.05602492 312.55553656 C-15.14768847 312.5543169 -27.23907191 312.58303875 -39.33065443 312.6253233 C-51.76340403 312.6684561 -64.19601708 312.68913173 -76.62884337 312.68654197 C-83.60215417 312.68554769 -90.57517104 312.69371728 -97.54841423 312.72607613 C-104.10589138 312.7563124 -110.66285466 312.75534353 -117.22039986 312.73352623 C-119.62376436 312.73039146 -122.02716765 312.7374612 -124.4304657 312.7556076 C-127.7180775 312.77881928 -131.00355545 312.76480555 -134.29112244 312.74171448 C-135.23637392 312.75714517 -136.18162539 312.77257586 -137.15552086 312.78847414 C-145.06282046 312.66619762 -151.34526968 309.76675887 -156.8844952 304.05773932 C-158.47712189 302.12614279 -159.7480964 300.16690849 -161 298 C-161.36881287 297.38343536 -161.73762573 296.76687073 -162.11761475 296.13162231 C-166.54809324 287.0625691 -165.49744303 276.94948062 -165.390625 267.1171875 C-165.38315435 265.09124309 -165.37746531 263.06529141 -165.37347412 261.03933716 C-165.35828272 255.735755 -165.31905743 250.43261875 -165.2746582 245.12921143 C-165.23356475 239.70599396 -165.21543316 234.28270366 -165.1953125 228.859375 C-165.15255644 218.23938861 -165.08438457 207.61973155 -165 197 C-165.66894287 197.27424805 -166.33788574 197.54849609 -167.02709961 197.83105469 C-167.91405518 198.19102539 -168.80101074 198.55099609 -169.71484375 198.921875 C-170.59003662 199.27862305 -171.46522949 199.63537109 -172.36694336 200.00292969 C-182.5929112 203.8752387 -192.88305623 204.32963478 -203.06640625 200.15234375 C-209.65649866 197.06362871 -215.24184402 193.23237965 -218.3046875 186.4375 C-220.4386482 178.95664902 -219.92555478 171.77439794 -216.26171875 164.96337891 C-214.16116976 161.69468406 -211.56104362 159.09810488 -208.75 156.4375 C-207.87903687 155.59082764 -207.87903687 155.59082764 -206.99047852 154.72705078 C-203.4513394 151.30971289 -199.83902181 147.99109253 -196.08984375 144.8046875 C-193.33866724 142.42890517 -190.67173041 139.96411719 -188 137.5 C-184.6999892 134.46082532 -181.39049858 131.4384321 -178 128.5 C-173.0977765 124.2460044 -168.3389748 119.83532624 -163.56445312 115.43945312 C-161.04638258 113.12257673 -158.52298003 110.81152713 -156 108.5 C-154.99867766 107.58205334 -153.9973756 106.66408457 -152.99609375 105.74609375 C-151.00968118 103.92516169 -149.02265613 102.10490144 -147.03515625 100.28515625 C-144.02152797 97.52551607 -141.01012707 94.76345853 -138 92 C-137.49919922 91.54044922 -136.99839844 91.08089844 -136.48242188 90.60742188 C-127.66220431 82.50814164 -118.93515921 74.31216685 -110.22460938 66.09521484 C-107.97086813 63.97256259 -105.71265352 61.85477094 -103.453125 59.73828125 C-96.83665843 53.53619815 -90.25928243 47.32539 -83.89453125 40.86328125 C-81.42503315 38.43451714 -78.80639967 36.20808148 -76.17578125 33.95703125 C-72.49740987 30.64847818 -69.07006641 27.08760775 -65.61328125 23.55078125 C-63 21 -63 21 -60.3671875 18.90234375 C-58.17745653 17.14260945 -56.56423918 15.42954181 -54.8125 13.25 C-40.92821182 -2.8581785 -19.79893461 -9.67066606 0 0 Z " fill="#FE9200" transform="translate(531,253)"/>
<path d="M0 0 C1.20849609 0.56654297 1.20849609 0.56654297 2.44140625 1.14453125 C9.42521611 4.85503055 14.52416758 10.2506396 19.953125 15.87890625 C22.89872478 18.93074375 26.01021555 21.71578978 29.2421875 24.4609375 C31.65873348 26.57675776 33.87809793 28.86614905 36.12646484 31.15771484 C37.93431894 32.93541448 39.79656374 34.59735265 41.71875 36.25 C45.91314694 39.89746914 49.96654617 43.67624955 54 47.5 C55.49855671 48.91551409 56.99725804 50.33087509 58.49609375 51.74609375 C59.24745605 52.45620605 59.99881836 53.16631836 60.77294922 53.89794922 C64.19493454 57.1278652 67.62816166 60.34572924 71.0625 63.5625 C75.11391269 67.35725304 79.16418358 71.15315125 83.20703125 74.95703125 C89.60638717 80.97482548 96.01526855 86.97153591 102.5703125 92.8203125 C105.44393533 95.39825709 108.28442786 98.01077354 111.125 100.625 C120.78845406 109.50055742 130.79129422 117.97762868 140.76025391 126.50585938 C144.24137799 129.48434022 147.71881821 132.46704804 151.19384766 135.45263672 C153.05584517 137.04784356 154.92420908 138.6353794 156.79296875 140.22265625 C162.92526744 145.45160907 168.97124739 150.75513185 174.75 156.375 C175.69359375 157.29023438 176.6371875 158.20546875 177.609375 159.1484375 C182.33873157 164.78966348 183.58507637 170.12236707 183.33984375 177.29296875 C182.44574558 184.4149231 178.73642255 188.99803163 173.28515625 193.4609375 C166.16231677 198.25820033 158.30609507 200.13577287 149.8125 200.1875 C148.76707031 200.20167969 147.72164062 200.21585938 146.64453125 200.23046875 C143.55186114 200.03489797 140.79451016 199.60978347 137.7722168 198.9855957 C136.876978 198.80205032 135.9817392 198.61850494 135.05937195 198.42939758 C134.37977921 198.28769638 133.70018646 198.14599518 133 198 C132.99413376 199.04045975 132.98826752 200.08091949 132.98222351 201.15290833 C132.9248215 210.9947311 132.85196958 220.83633663 132.76428509 230.67793751 C132.71970233 235.73669124 132.68041996 240.79536668 132.65356445 245.85424805 C132.6274103 250.74328935 132.58692348 255.63202738 132.53681374 260.52087975 C132.52022652 262.37898654 132.50866184 264.2371457 132.50238609 266.09531593 C132.45047034 280.06353707 132.1753114 293.10912524 122.21484375 303.94140625 C112.79747862 312.90943387 102.22580697 312.3963106 89.9375 312.1875 C88.38868489 312.17242519 86.83985559 312.15874173 85.29101562 312.14648438 C81.52698822 312.11370138 77.76365362 312.06207498 74 312 C74 311.67 74 311.34 74 311 C74.97839844 310.78085937 75.95679688 310.56171875 76.96484375 310.3359375 C90.2469108 307.19518314 99.35120336 301.96016019 106.8125 290.125 C109.66823435 282.60990962 110.29359713 275.02718238 110.22705078 267.05224609 C110.22748886 265.64554153 110.22748886 265.64554153 110.22793579 264.2104187 C110.22655592 261.14799348 110.21105869 258.08581958 110.1953125 255.0234375 C110.19157759 252.8853875 110.18873288 250.74733578 110.18673706 248.60928345 C110.17913828 243.00994048 110.15952237 237.41070297 110.1373291 231.81140137 C110.11678941 226.08652167 110.10771804 220.36162476 110.09765625 214.63671875 C110.07627267 203.4244331 110.04218251 192.21222535 110 181 C109.37449249 180.69824356 108.74898499 180.39648712 108.10452271 180.08558655 C105.92048904 178.95898546 104.45271436 177.74993004 102.6796875 176.05859375 C102.06706055 175.47948242 101.45443359 174.90037109 100.82324219 174.30371094 C100.18032227 173.68786133 99.53740234 173.07201172 98.875 172.4375 C97.52406983 171.15948751 96.17250698 169.88214346 94.8203125 168.60546875 C93.83659668 167.67420166 93.83659668 167.67420166 92.83300781 166.72412109 C89.73639006 163.81145266 86.56803084 160.98106411 83.3984375 158.1484375 C80.70940633 155.73969622 78.04196128 153.3081455 75.375 150.875 C72.31868051 148.09187108 69.25042752 145.33020197 66.125 142.625 C62.5142767 139.4897629 59.0061171 136.25094553 55.5 133 C51.3766562 129.17709053 47.22763174 125.39946097 42.97265625 121.72265625 C39.70421432 118.8684327 36.50481205 115.93750397 33.296875 113.015625 C31.06085025 110.98573474 31.06085025 110.98573474 28.703125 109.359375 C28.14109375 108.91078125 27.5790625 108.4621875 27 108 C27 107.34 27 106.68 27 106 C26.14148438 105.63455078 26.14148438 105.63455078 25.265625 105.26171875 C22.59566462 103.77482702 20.86170993 102.01916092 18.75 99.8125 C15.36253836 96.28286387 11.80789357 93.06188667 8.11425781 89.86254883 C3.96225978 86.2048591 -0.00877808 82.34899526 -4 78.51757812 C-11.33420518 70.66486916 -11.33420518 70.66486916 -20.703125 66.93359375 C-31.70267846 72.04052928 -40.34590028 81.79154498 -48.97119141 90.06835938 C-51.81622537 92.77713298 -54.71530822 95.42358617 -57.625 98.0625 C-61.26830196 101.38316623 -64.80469816 104.7645921 -68.25390625 108.28491211 C-70.00581949 110.00571615 -71.81773449 111.61027777 -73.6796875 113.2109375 C-78.02080727 116.98703526 -82.20355737 120.91339328 -86.375 124.875 C-91.73281724 129.94092016 -97.11732965 134.96333795 -102.62109375 139.87109375 C-105.39218445 142.35096967 -108.13577991 144.86006916 -110.875 147.375 C-111.37813721 147.83688721 -111.88127441 148.29877441 -112.3996582 148.7746582 C-113.42247259 149.71391093 -114.44517709 150.65328333 -115.46777344 151.59277344 C-118.47311608 154.35293835 -121.48197802 157.10926713 -124.49072266 159.86572266 C-127.04322703 162.20461437 -129.59368566 164.54567341 -132.140625 166.890625 C-137.00065709 171.36185452 -141.8788687 175.8015219 -146.875 180.12109375 C-149.09014603 182.07970633 -151.2575881 184.08589208 -153.42260742 186.09960938 C-164.93950307 196.78050068 -174.42950505 203.39773359 -190.70703125 203.15234375 C-199.92766275 202.53972939 -208.48245318 198.51754682 -215 192 C-219.18405524 186.54253664 -219.46479522 181.05568231 -219.53125 174.34375 C-218.31916007 166.71471336 -214.23021711 161.6244321 -208.75 156.4375 C-207.87903687 155.59082764 -207.87903687 155.59082764 -206.99047852 154.72705078 C-203.4513394 151.30971289 -199.83902181 147.99109253 -196.08984375 144.8046875 C-193.33866724 142.42890517 -190.67173041 139.96411719 -188 137.5 C-184.6999892 134.46082532 -181.39049858 131.4384321 -178 128.5 C-173.0977765 124.2460044 -168.3389748 119.83532624 -163.56445312 115.43945312 C-161.04638258 113.12257673 -158.52298003 110.81152713 -156 108.5 C-154.99867766 107.58205334 -153.9973756 106.66408457 -152.99609375 105.74609375 C-151.00968118 103.92516169 -149.02265613 102.10490144 -147.03515625 100.28515625 C-144.02152797 97.52551607 -141.01012707 94.76345853 -138 92 C-137.49919922 91.54044922 -136.99839844 91.08089844 -136.48242188 90.60742188 C-127.66220431 82.50814164 -118.93515921 74.31216685 -110.22460938 66.09521484 C-107.97086813 63.97256259 -105.71265352 61.85477094 -103.453125 59.73828125 C-96.83665843 53.53619815 -90.25928243 47.32539 -83.89453125 40.86328125 C-81.42503315 38.43451714 -78.80639967 36.20808148 -76.17578125 33.95703125 C-72.49740987 30.64847818 -69.07006641 27.08760775 -65.61328125 23.55078125 C-63 21 -63 21 -60.3671875 18.90234375 C-58.17745653 17.14260945 -56.56423918 15.42954181 -54.8125 13.25 C-40.92821182 -2.8581785 -19.79893461 -9.67066606 0 0 Z " fill="#FE6103" transform="translate(531,253)"/>
<path d="M0 0 C2.08976482 1.80208291 4.1179509 3.61168559 6.125 5.5 C6.96260864 6.27960083 6.96260864 6.27960083 7.81713867 7.07495117 C12.25469117 11.23253979 16.55375887 15.51905213 20.82617188 19.84521484 C24.09494788 23.14119437 27.47434533 26.22091615 31.0078125 29.2265625 C34.26140738 32.1228999 37.27475396 35.25515272 40.3125 38.375 C43.07779616 41.07598695 45.95258507 43.59591254 48.87255859 46.12646484 C53.16995047 49.91097084 57.28931914 53.88964216 61.43945312 57.83398438 C62.11556641 58.47271484 62.79167969 59.11144531 63.48828125 59.76953125 C64.39380737 60.62961792 64.39380737 60.62961792 65.31762695 61.50708008 C67.13755481 63.19091179 67.13755481 63.19091179 70 65 C70 65.66 70 66.32 70 67 C70.59458008 67.27239502 71.18916016 67.54479004 71.80175781 67.82543945 C73.94440556 68.97029488 75.42006637 70.12644698 77.171875 71.79296875 C77.74953613 72.33711426 78.32719727 72.88125977 78.92236328 73.44189453 C79.5254834 74.01794434 80.12860352 74.59399414 80.75 75.1875 C82.01223105 76.37714061 83.27524532 77.5659508 84.5390625 78.75390625 C85.14137695 79.32125488 85.74369141 79.88860352 86.36425781 80.47314453 C88.24930777 82.23271206 90.17272043 83.94043809 92.125 85.625 C97.00365654 89.83791236 101.72124348 94.22755797 106.46533203 98.59033203 C113.2372175 104.81064172 120.03401746 110.99739803 127 117 C128.43085937 118.24910156 128.43085937 118.24910156 129.890625 119.5234375 C135.56345788 124.43582299 141.34035323 129.12149564 147.4375 133.5 C148.0042041 133.90903564 148.5709082 134.31807129 149.15478516 134.73950195 C154.6500243 138.61634693 159.1298952 141.59740042 166 141 C168.26566343 140.56058477 168.26566343 140.56058477 170 140 C166.56747184 143.89090925 163.00819222 144.36050343 158 145 C151.75182335 145.38222304 145.91730315 145.24556488 139.78100586 143.98339844 C138.88449814 143.80017029 137.98799042 143.61694214 137.0643158 143.42816162 C136.38309158 143.28686829 135.70186737 143.14557495 135 143 C134.99413376 144.04045975 134.98826752 145.08091949 134.98222351 146.15290833 C134.9248215 155.9947311 134.85196958 165.83633663 134.76428509 175.67793751 C134.71970233 180.73669124 134.68041996 185.79536668 134.65356445 190.85424805 C134.6274103 195.74328935 134.58692348 200.63202738 134.53681374 205.52087975 C134.52022652 207.37898654 134.50866184 209.2371457 134.50238609 211.09531593 C134.45047034 225.06353707 134.1753114 238.10912524 124.21484375 248.94140625 C114.79747862 257.90943387 104.22580697 257.3963106 91.9375 257.1875 C90.38868489 257.17242519 88.83985559 257.15874173 87.29101562 257.14648438 C83.52698822 257.11370138 79.76365362 257.06207498 76 257 C76 256.67 76 256.34 76 256 C76.97839844 255.78085937 77.95679688 255.56171875 78.96484375 255.3359375 C92.2469108 252.19518314 101.35120336 246.96016019 108.8125 235.125 C111.66823435 227.60990962 112.29359713 220.02718238 112.22705078 212.05224609 C112.22748886 210.64554153 112.22748886 210.64554153 112.22793579 209.2104187 C112.22655592 206.14799348 112.21105869 203.08581958 112.1953125 200.0234375 C112.19157759 197.8853875 112.18873288 195.74733578 112.18673706 193.60928345 C112.17913828 188.00994048 112.15952237 182.41070297 112.1373291 176.81140137 C112.11678941 171.08652167 112.10771804 165.36162476 112.09765625 159.63671875 C112.07627267 148.4244331 112.04218251 137.21222535 112 126 C111.37449249 125.69824356 110.74898499 125.39648712 110.10452271 125.08558655 C107.92048904 123.95898546 106.45271436 122.74993004 104.6796875 121.05859375 C104.06706055 120.47948242 103.45443359 119.90037109 102.82324219 119.30371094 C102.18032227 118.68786133 101.53740234 118.07201172 100.875 117.4375 C99.52406983 116.15948751 98.17250698 114.88214346 96.8203125 113.60546875 C95.83659668 112.67420166 95.83659668 112.67420166 94.83300781 111.72412109 C91.73639006 108.81145266 88.56803084 105.98106411 85.3984375 103.1484375 C82.70940633 100.73969622 80.04196128 98.3081455 77.375 95.875 C74.31868051 93.09187108 71.25042752 90.33020197 68.125 87.625 C64.5142767 84.4897629 61.0061171 81.25094553 57.5 78 C53.3766562 74.17709053 49.22763174 70.39946097 44.97265625 66.72265625 C41.70421432 63.8684327 38.50481205 60.93750397 35.296875 58.015625 C33.06085025 55.98573474 33.06085025 55.98573474 30.703125 54.359375 C30.14109375 53.91078125 29.5790625 53.4621875 29 53 C29 52.34 29 51.68 29 51 C28.42765625 50.75636719 27.8553125 50.51273437 27.265625 50.26171875 C24.59566462 48.77482702 22.86170993 47.01916092 20.75 44.8125 C17.36253836 41.28286387 13.80789357 38.06188667 10.11425781 34.86254883 C5.96225978 31.2048591 1.99122192 27.34899526 -2 23.51757812 C-9.33420518 15.66486916 -9.33420518 15.66486916 -18.703125 11.93359375 C-29.70267846 17.04052928 -38.34590028 26.79154498 -46.97119141 35.06835938 C-49.81622537 37.77713298 -52.71530822 40.42358617 -55.625 43.0625 C-59.26830196 46.38316623 -62.80469816 49.7645921 -66.25390625 53.28491211 C-68.00581949 55.00571615 -69.81773449 56.61027777 -71.6796875 58.2109375 C-76.02080727 61.98703526 -80.20355737 65.91339328 -84.375 69.875 C-89.73281724 74.94092016 -95.11732965 79.96333795 -100.62109375 84.87109375 C-103.39218445 87.35096967 -106.13577991 89.86006916 -108.875 92.375 C-109.37813721 92.83688721 -109.88127441 93.29877441 -110.3996582 93.7746582 C-111.42247259 94.71391093 -112.44517709 95.65328333 -113.46777344 96.59277344 C-116.47311608 99.35293835 -119.48197802 102.10926713 -122.49072266 104.86572266 C-125.04322703 107.20461437 -127.59368566 109.54567341 -130.140625 111.890625 C-135.00065709 116.36185452 -139.8788687 120.8015219 -144.875 125.12109375 C-147.09014603 127.07970633 -149.2575881 129.08589208 -151.42260742 131.09960938 C-162.93950307 141.78050068 -172.42950505 148.39773359 -188.70703125 148.15234375 C-195.22720226 147.7191467 -201.53143273 145.60720048 -207 142 C-207.66 141.01 -208.32 140.02 -209 139 C-208.484375 139.28875 -207.96875 139.5775 -207.4375 139.875 C-206.2309375 140.431875 -206.2309375 140.431875 -205 141 C-203.989375 141.556875 -202.97875 142.11375 -201.9375 142.6875 C-197.03896522 143.0762726 -196.30620101 142.07367413 -192.625 139 C-191.34496094 137.824375 -191.34496094 137.824375 -190.0390625 136.625 C-187.72385687 134.51753325 -185.28796888 132.84030931 -182.65234375 131.15234375 C-177.93074314 128.0718833 -173.97039687 124.48370437 -169.9375 120.5625 C-168.61458159 119.29161378 -167.29036401 118.02207853 -165.96484375 116.75390625 C-165.31459229 116.13161133 -164.66434082 115.50931641 -163.99438477 114.86816406 C-161.33401718 112.37616593 -158.59171525 109.98665716 -155.83666992 107.6003418 C-152.55973177 104.74505407 -149.38772015 101.77355556 -146.19921875 98.8203125 C-144 97 -144 97 -141 96 C-141 95.34 -141 94.68 -141 94 C-139.7421875 92.73046875 -139.7421875 92.73046875 -137.875 91.1875 C-133.20692992 87.22545476 -128.74116875 83.07144776 -124.27685547 78.88354492 C-121.25021731 76.05474597 -118.19098835 73.27854116 -115.0625 70.5625 C-110.94197448 66.97788098 -106.964549 63.25548099 -103 59.5 C-98.34985339 55.09507597 -93.64959063 50.77556013 -88.8125 46.57617188 C-86.51585706 44.57898345 -84.25615529 42.54273519 -82 40.5 C-79.08511071 37.86819555 -76.15726789 35.25713074 -73.1875 32.6875 C-69.02197368 29.06054678 -64.97891101 25.30557541 -60.92749023 21.55249023 C-56.76184 17.69580899 -52.56903962 13.87214842 -48.33203125 10.09375 C-46.77266527 8.69371622 -45.22831066 7.2767869 -43.69921875 5.84375 C-30.70773237 -6.18291096 -15.44454258 -10.8843678 0 0 Z " fill="#F1420A" transform="translate(529,308)"/>
<path d="M0 0 C1.62353142 -0.02409439 1.62353142 -0.02409439 3.27986145 -0.04867554 C8.27934226 -0.09318389 13.27868709 -0.13426542 18.27832031 -0.15722656 C20.90568957 -0.17370517 23.53301553 -0.20088624 26.16015625 -0.23925781 C29.95686007 -0.294432 33.75250801 -0.31597227 37.54956055 -0.33056641 C39.28934929 -0.36457047 39.28934929 -0.36457047 41.06428528 -0.39926147 C50.34639364 -0.37557868 58.73951915 1.90356508 66.3737793 7.38037109 C72.84798979 14.48621187 75.31608988 22.61781842 75.21362305 32.05615234 C74.54260378 39.64528574 70.55090573 46.12567074 64.9362793 51.19287109 C62.26100313 52.78654147 61.1190302 53.19287109 57.9362793 53.19287109 C57.9362793 53.85287109 57.9362793 54.51287109 57.9362793 55.19287109 C59.4522168 55.25474609 59.4522168 55.25474609 60.9987793 55.31787109 C65.82436361 56.03096351 68.79882904 58.57273618 71.9362793 62.19287109 C76.68038736 69.66018319 77.97729925 77.01360586 76.51049805 85.72021484 C74.00116448 95.71136507 67.16604996 101.87397817 58.6862793 107.25537109 C45.193404 113.61191772 28.87894098 112.57396806 14.3737793 112.38037109 C12.37964893 112.36527757 10.38550734 112.35159753 8.39135742 112.33935547 C3.57271373 112.30676442 -1.24537435 112.25524761 -6.0637207 112.19287109 C-6.08705082 97.73754299 -6.10463402 83.28221778 -6.11553288 68.82687473 C-6.12069559 62.11545242 -6.12773783 55.40404178 -6.13916016 48.69262695 C-6.14998635 42.22173373 -6.15599697 35.75085267 -6.15859795 29.2799511 C-6.16045268 26.80508164 -6.16407421 24.33021289 -6.16945076 21.85534859 C-6.17665763 18.40216737 -6.17771179 14.94903708 -6.17724609 11.49584961 C-6.18084137 10.46151291 -6.18443665 9.42717621 -6.18814087 8.36149597 C-6.1867662 7.42615021 -6.18539154 6.49080444 -6.18397522 5.52711487 C-6.18489701 4.70948449 -6.18581881 3.89185411 -6.18676853 3.04944706 C-5.93099205 -0.80977159 -3.2729905 0.04401001 0 0 Z " fill="#139A85" transform="translate(107.063720703125,601.80712890625)"/>
<path d="M0 0 C4.83737572 4.64587891 8.1327967 8.46947993 10 15 C7.54379149 16.17133058 5.08525083 17.33721722 2.625 18.5 C1.92632813 18.83386719 1.22765625 19.16773438 0.5078125 19.51171875 C-4.7734375 22 -4.7734375 22 -7 22 C-7.92489001 20.78645005 -8.79049878 19.52739293 -9.625 18.25 C-12.87536023 13.87481344 -15.64055521 11.3233197 -21 10 C-29.56907535 9.0900097 -37.65133188 9.08375816 -45 14 C-47.37490676 15.94310553 -47.85160682 17.09258425 -48.33984375 20.078125 C-48.62179254 24.23171211 -48.45685674 26.35754521 -46 29.8125 C-38.25650654 35.45879731 -29.58685161 37.82525045 -20.5 40.5 C3.43373911 47.5449877 3.43373911 47.5449877 8.12109375 54.71484375 C13.06914033 63.86782369 14.47988308 73.9820649 11.875 84.0625 C9.09363187 92.40660439 3.59845716 98.6302388 -4 103 C-7.60678214 104.5464696 -11.2587178 105.82140545 -15 107 C-15.99 107.33 -16.98 107.66 -18 108 C-32.18415083 109.27428864 -46.15694341 108.32902471 -58.00390625 99.69921875 C-63.53416048 94.99146808 -67.85568785 89.54016928 -71 83 C-71 81.68 -71 80.36 -71 79 C-69.1096624 78.29753005 -67.21243172 77.61359151 -65.3125 76.9375 C-64.25675781 76.55464844 -63.20101562 76.17179688 -62.11328125 75.77734375 C-58.81903145 74.95481463 -57.16497282 74.82382767 -54 76 C-52.26171875 77.70703125 -52.26171875 77.70703125 -50.6875 79.8125 C-46.12052451 85.36450942 -41.06382476 87.89981186 -34 89 C-24.8949739 89.5656647 -16.90040131 89.92032105 -9.5 84 C-7.19063439 79.38126878 -7.14601082 75.05531094 -8 70 C-13.98756779 60.92207464 -29.23183975 58.5503018 -38.96289062 55.53125 C-49.81000391 52.03966373 -59.42391377 47.69599077 -66 38 C-69.52729345 31.11168282 -69.30039224 21.31975791 -67.08984375 13.9765625 C-65.89394363 11.4770928 -64.58997847 9.26719152 -63 7 C-62.55398438 6.35675781 -62.10796875 5.71351563 -61.6484375 5.05078125 C-56.97640603 -0.96543805 -50.26682917 -5.69487496 -43 -8 C-40.18495501 -8.29427492 -37.44583476 -8.5066433 -34.625 -8.625 C-33.89539063 -8.66367187 -33.16578125 -8.70234375 -32.4140625 -8.7421875 C-19.82715874 -9.37153269 -10.00431158 -8.29801068 0 0 Z " fill="#139A84" transform="translate(686,609)"/>
<path d="M0 0 C6.98720991 5.01741137 11.38982798 10.40421914 13 19 C14.56915636 31.83745003 14.33993228 44.90266353 14.5625 57.8125 C14.60577429 60.16211576 14.64939115 62.51172524 14.69335938 64.86132812 C14.79952545 70.57415392 14.90104545 76.28704493 15 82 C9.39 82 3.78 82 -2 82 C-2.33 78.37 -2.66 74.74 -3 71 C-4.051875 72.051875 -5.10375 73.10375 -6.1875 74.1875 C-14.06193549 81.00831384 -23.56510238 83.96047525 -33.921875 83.47265625 C-40.03010992 82.53471662 -44.84333408 80.513176 -48.9140625 75.76953125 C-54.39863514 67.80260464 -55.32563488 59.47396669 -54 50 C-52.60019072 46.31550201 -50.76862581 43.78095822 -48 41 C-47.49339844 40.49082031 -46.98679687 39.98164062 -46.46484375 39.45703125 C-37.64082019 32.06393043 -23.53550512 31.82255313 -12.5625 31.9375 C-11.73556641 31.94201172 -10.90863281 31.94652344 -10.05664062 31.95117188 C-8.03772854 31.96284189 -6.01885426 31.98077282 -4 32 C-4.73813085 23.91472599 -4.73813085 23.91472599 -8.375 16.875 C-13.20089959 13.42792887 -15.90455997 12.41011871 -22 13 C-27.01075233 14.46907953 -31.41481862 16.20883876 -35.25 19.8125 C-38 22 -38 22 -40.75 22 C-41.8225 21.67 -42.895 21.34 -44 21 C-44.85851562 20.75121094 -45.71703125 20.50242187 -46.6015625 20.24609375 C-49.07699466 19.52438325 -51.54017256 18.77294973 -54 18 C-51.13707777 9.6030786 -44.39863097 4.41691475 -36.6875 0.5 C-26.41914831 -4.3321655 -10.16874576 -5.9877945 0 0 Z " fill="#139A85" transform="translate(824,633)"/>
<path d="M0 0 C9.99253534 9.49489912 8.51035345 22.87010372 8.85766602 35.6953125 C9.01369213 42.0880814 9.13312856 48.48141695 9.25 54.875 C9.2933152 57.11003197 9.33693299 59.34505809 9.38085938 61.58007812 C9.48655372 66.99082454 9.58817995 72.40163298 9.6875 77.8125 C4.4075 77.8125 -0.8725 77.8125 -6.3125 77.8125 C-6.3125 73.8525 -6.3125 69.8925 -6.3125 65.8125 C-7.611875 66.885 -8.91125 67.9575 -10.25 69.0625 C-20.41358401 76.98175947 -30.61367295 78.96328939 -43.3125 77.8125 C-49.77749689 75.6938027 -53.87939998 70.49077616 -57.3125 64.8125 C-59.49665515 58.26003454 -59.6580619 48.63779409 -56.75 42.25 C-52.62713741 35.59555512 -46.75821603 31.81660538 -39.3125 29.8125 C-38.55839844 29.60753906 -37.80429687 29.40257812 -37.02734375 29.19140625 C-27.91699501 27.14967431 -18.58938848 27.63945959 -9.3125 27.8125 C-9.56360803 21.45946693 -9.95545575 16.79197914 -14.3125 11.8125 C-19.18602806 8.7062953 -24.75190521 9.22792465 -30.3125 9.8125 C-35.23504895 11.35278144 -38.94419735 13.88281358 -42.3125 17.8125 C-47.50894079 16.21359514 -52.37862142 14.07111997 -57.3125 11.8125 C-55.6183991 5.60079671 -51.17335775 1.45652233 -45.72265625 -1.67578125 C-30.61748258 -8.85762399 -13.72572615 -10.80963781 0 0 Z " fill="#129984" transform="translate(455.3125,637.1875)"/>
<path d="M0 0 C5.84387482 4.67311552 9.56990285 11.50933921 10.58323669 18.89987183 C11.30226591 25.60681491 11.43114017 32.23131275 11.3984375 38.97265625 C11.39702255 40.09050507 11.3956076 41.20835388 11.39414978 42.3600769 C11.38859747 45.89502758 11.37605404 49.42991254 11.36328125 52.96484375 C11.35826008 55.37630116 11.35369826 57.78775958 11.34960938 60.19921875 C11.3386437 66.07945201 11.32141244 71.95963678 11.30078125 77.83984375 C6.02078125 77.83984375 0.74078125 77.83984375 -4.69921875 77.83984375 C-5.02921875 74.53984375 -5.35921875 71.23984375 -5.69921875 67.83984375 C-7.15328125 69.20109375 -7.15328125 69.20109375 -8.63671875 70.58984375 C-15.58062116 76.57206518 -23.46905408 79.02425779 -32.51171875 79.08984375 C-33.21103516 79.11046875 -33.91035156 79.13109375 -34.63085938 79.15234375 C-40.8165445 79.19863513 -44.67817416 77.57216769 -49.32421875 73.58984375 C-55.37663662 66.58178095 -57.13954802 60.15980702 -57.0390625 51.015625 C-56.41783706 45.21038041 -54.19148572 40.30313088 -50.01953125 36.1796875 C-46.51698418 33.50996829 -42.98236055 31.9106292 -38.69921875 30.83984375 C-38.01214844 30.65550781 -37.32507813 30.47117187 -36.6171875 30.28125 C-26.81923509 28.04392228 -16.68443194 28.65907816 -6.69921875 28.83984375 C-6.83756307 27.24436057 -6.98196623 25.64940201 -7.12890625 24.0546875 C-7.20866699 23.16644287 -7.28842773 22.27819824 -7.37060547 21.36303711 C-7.82041401 17.90926944 -8.63731598 15.65777753 -10.69921875 12.83984375 C-15.45119193 10.09832076 -19.26317092 9.19488892 -24.69921875 9.83984375 C-29.48156156 11.30382624 -33.60227275 12.91741189 -37.44921875 16.15234375 C-39.69921875 17.83984375 -39.69921875 17.83984375 -42.44921875 17.83984375 C-46.70968705 16.52893043 -50.6814369 14.75945063 -54.69921875 12.83984375 C-52.26996049 5.11038564 -45.5714893 0.55343094 -38.69921875 -3.16015625 C-25.70840161 -8.31036186 -11.80822576 -7.51098653 0 0 Z " fill="#129984" transform="translate(591.69921875,637.16015625)"/>
<path d="M0 0 C7.44388212 5.25663754 12.00320413 11.10223634 14 20 C14.23329344 22.95758802 14.42016999 25.89725322 14.55859375 28.859375 C14.60084579 29.73768982 14.64309784 30.61600464 14.68663025 31.52093506 C15.13641646 41.76324669 15.10991975 52.00017698 15.0625 62.25 C15.05746461 64.18229048 15.05290538 66.11458226 15.04882812 68.046875 C15.03800776 72.69794992 15.020861 77.34895973 15 82 C9.72 82 4.44 82 -1 82 C-1 78.7 -1 75.4 -1 72 C-1.68964844 72.47050781 -2.37929687 72.94101562 -3.08984375 73.42578125 C-14.27229565 80.83473086 -23.59550675 83.47700237 -37 82 C-40.27785059 80.86199252 -42.51360324 79.3982713 -45 77 C-45.74830078 76.27876953 -45.74830078 76.27876953 -46.51171875 75.54296875 C-51.83542988 69.76163203 -52.52531515 63.67368829 -52.375 56.1015625 C-51.58040617 49.52960939 -48.55566673 44.13707076 -43.8125 39.5625 C-39.68027208 36.35458622 -35.02539413 35.17006664 -30 34 C-29.36578125 33.82210937 -28.7315625 33.64421875 -28.078125 33.4609375 C-19.6517873 31.59193778 -10.58918167 31.8450849 -2 32 C-3.13083005 23.14068772 -3.13083005 23.14068772 -7.5 15.6875 C-12.48572397 13.2836688 -16.56669397 13.06752721 -22 14 C-26.22487042 15.53472503 -30.51156835 17.24634249 -33.46875 20.73046875 C-35 22 -35 22 -37.35546875 21.84765625 C-40.18019123 20.94224299 -42.68142881 19.80565702 -45.3125 18.4375 C-46.19550781 17.98246094 -47.07851562 17.52742187 -47.98828125 17.05859375 C-48.65214844 16.70925781 -49.31601563 16.35992188 -50 16 C-47.66552527 9.12626884 -42.38362048 5.05623736 -36.0625 1.75 C-34.71727206 1.14633872 -33.36281052 0.56284335 -32 0 C-31.33613281 -0.2990625 -30.67226562 -0.598125 -29.98828125 -0.90625 C-20.86444348 -4.5490392 -8.73682693 -4.87371502 0 0 Z " fill="#139985" transform="translate(243,632)"/>
<path d="M0 0 C6.6 0 13.2 0 20 0 C23.08670523 7.97626485 26.15763599 15.95847042 29.21398926 23.94641113 C29.74802128 25.34166207 30.28245959 26.73675756 30.81726074 28.13171387 C32.49058723 32.49686016 34.15645699 36.86473311 35.81286621 41.23632812 C36.35326518 42.65941395 36.89598243 44.08162165 37.44104004 45.50292969 C38.20917727 47.50744012 38.96883684 49.51497236 39.7265625 51.5234375 C40.16564941 52.67763184 40.60473633 53.83182617 41.05712891 55.02099609 C42 58 42 58 42 62 C42.66 62 43.32 62 44 62 C44.10739502 61.40963959 44.21479004 60.81927917 44.32543945 60.21102905 C45.58603346 53.57437713 47.28402513 47.14256174 49.1875 40.6640625 C49.49067139 39.62228851 49.79384277 38.58051453 50.10620117 37.50717163 C50.74289169 35.32335182 51.38167361 33.14014075 52.02246094 30.95751953 C53.00283044 27.61535077 53.9744968 24.27073606 54.9453125 20.92578125 C55.56719207 18.79672413 56.1895703 16.6678126 56.8125 14.5390625 C57.24695435 13.04217392 57.24695435 13.04217392 57.69018555 11.51504517 C57.96386963 10.58662811 58.23755371 9.65821106 58.51953125 8.70166016 C58.75776611 7.88798981 58.99600098 7.07431946 59.24145508 6.23599243 C60 4 60 4 62 0 C68.27 0 74.54 0 81 0 C78.61340024 9.17922985 75.71257886 18.14254306 72.6875 27.125 C72.30191422 28.27169662 72.30191422 28.27169662 71.90853882 29.44155884 C70.81156567 32.70337996 69.7140472 35.96501146 68.61341858 39.2256012 C66.82661395 44.52327905 65.063812 49.82830909 63.31712341 55.13934326 C62.11843053 58.77574765 60.90695958 62.40782333 59.69326782 66.03924561 C59.11629435 67.77406436 58.54430496 69.51055056 57.97787476 71.24884033 C46.44310058 106.5964106 46.44310058 106.5964106 32.640625 114.3203125 C27.14457071 116.88873003 22.397007 118.14124701 16.3125 118.125 C15.33925781 118.12757813 14.36601563 118.13015625 13.36328125 118.1328125 C11 118 11 118 10 117 C10.06451153 115.22593293 10.20183279 113.45427356 10.375 111.6875 C10.51035156 110.23923828 10.51035156 110.23923828 10.6484375 108.76171875 C10.9455892 106.4274271 11.36611187 104.26158392 12 102 C12.73605469 101.85304688 13.47210937 101.70609375 14.23046875 101.5546875 C18.99094897 100.4604688 22.27415179 99.63511718 26 96.375 C26.66 95.26125 27.32 94.1475 28 93 C28.34627441 92.42354736 28.69254883 91.84709473 29.04931641 91.25317383 C31.17829203 86.69869069 31.1766505 83.47941515 29.56924438 78.69369507 C28.257457 75.19572275 26.82568389 71.75467569 25.375 68.3125 C24.76483401 66.80517814 24.15794327 65.29652666 23.55419922 63.78662109 C22.31706709 60.69545044 21.06910503 57.60899922 19.81445312 54.52490234 C17.09080037 47.78420303 14.60453983 40.95835041 12.125 34.125 C11.45416382 32.28844849 11.45416382 32.28844849 10.76977539 30.41479492 C7.08674445 20.30820733 3.51862447 10.16491512 0 0 Z " fill="#129984" transform="translate(843,631)"/>
<path d="M0 0 C7.29760619 5.00590179 9.30373136 13.23661471 11.2265625 21.52734375 C11.70825579 26.26737578 11.69751696 30.94270329 11.6171875 35.703125 C11.61152771 36.99429733 11.60586792 38.28546967 11.60003662 39.61576843 C11.584973 43.00089167 11.54586663 46.38529662 11.5012207 49.7701416 C11.4598437 53.24314667 11.44193638 56.71627111 11.421875 60.18945312 C11.37934612 66.96906966 11.30916262 73.74809798 11.2265625 80.52734375 C4.9565625 80.52734375 -1.3134375 80.52734375 -7.7734375 80.52734375 C-7.7827832 78.73594971 -7.79212891 76.94455566 -7.80175781 75.09887695 C-7.83731884 69.17149401 -7.89113829 63.24442701 -7.95734024 57.31731892 C-7.99680281 53.72462993 -8.02899684 50.13218557 -8.04443359 46.53930664 C-8.0596089 43.07009709 -8.09406805 39.60156012 -8.14174652 36.13265038 C-8.16374317 34.16912944 -8.16591049 32.20541875 -8.16778564 30.24177551 C-8.18750427 29.04090805 -8.2072229 27.84004059 -8.22753906 26.6027832 C-8.23642151 25.54799271 -8.24530396 24.49320221 -8.25445557 23.40644836 C-8.90081669 19.82069483 -10.27735008 18.13314549 -12.7734375 15.52734375 C-16.33085799 13.74863351 -19.89696726 13.91844251 -23.7734375 14.52734375 C-30.62142214 17.3262777 -33.96180648 21.6198028 -36.8984375 28.2578125 C-38.23605787 31.72726533 -38.90930544 34.48144986 -38.97875977 38.18237305 C-38.99870499 39.1231218 -39.01865021 40.06387054 -39.03919983 41.03312683 C-39.06426857 42.55200249 -39.06426857 42.55200249 -39.08984375 44.1015625 C-39.11062485 45.14053177 -39.13140594 46.17950104 -39.15281677 47.24995422 C-39.21824406 50.57151628 -39.27716571 53.89315791 -39.3359375 57.21484375 C-39.37912919 59.46550305 -39.42274369 61.71615427 -39.46679688 63.96679688 C-39.57391853 69.48689744 -39.67520539 75.00707812 -39.7734375 80.52734375 C-45.7134375 80.52734375 -51.6534375 80.52734375 -57.7734375 80.52734375 C-57.79849365 78.5407373 -57.8235498 76.55413086 -57.84936523 74.50732422 C-57.93379706 67.88964096 -58.0220352 61.27201667 -58.11277676 54.65441704 C-58.1675726 50.64837905 -58.22091507 46.64233346 -58.27075195 42.63623047 C-58.31904509 38.75876682 -58.37139621 34.88137597 -58.42637825 31.00400162 C-58.44651232 29.53631568 -58.46526666 28.06861003 -58.48251152 26.6008873 C-58.59408787 17.20200257 -59.02155662 7.89775955 -59.7734375 -1.47265625 C-53.5034375 -1.47265625 -47.2334375 -1.47265625 -40.7734375 -1.47265625 C-40.4434375 2.81734375 -40.1134375 7.10734375 -39.7734375 11.52734375 C-38.8659375 10.33109375 -37.9584375 9.13484375 -37.0234375 7.90234375 C-27.62700219 -2.916047 -12.62648416 -7.05597644 0 0 Z " fill="#149985" transform="translate(333.7734375,632.47265625)"/>
<path d="M0 0 C0 9.24 0 18.48 0 28 C2.31 27.67 4.62 27.34 7 27 C8.39315986 26.93012411 9.78873026 26.89081595 11.18359375 26.90234375 C12.23256836 26.90717773 12.23256836 26.90717773 13.30273438 26.91210938 C14.35944336 26.92467773 14.35944336 26.92467773 15.4375 26.9375 C16.53481445 26.94426758 16.53481445 26.94426758 17.65429688 26.95117188 C19.43623419 26.96281852 21.21812863 26.98074809 23 27 C23 31.95 23 36.9 23 42 C15.41 42 7.82 42 0 42 C0.07411563 47.7299047 0.15704972 53.45828151 0.26245117 59.1875 C0.29563265 61.13500968 0.32368557 63.08261397 0.34643555 65.03027344 C0.38010634 67.83569515 0.43242827 70.64025528 0.48828125 73.4453125 C0.49467117 74.31116974 0.5010611 75.17702698 0.50764465 76.06912231 C0.63317448 81.27188811 1.0884784 86.0884784 5 90 C6.34267413 90.08631874 7.68974322 90.10706473 9.03515625 90.09765625 C9.84404297 90.09443359 10.65292969 90.09121094 11.48632812 90.08789062 C12.7615332 90.07532227 12.7615332 90.07532227 14.0625 90.0625 C14.91650391 90.05798828 15.77050781 90.05347656 16.65039062 90.04882812 C18.76695663 90.03700373 20.88348685 90.01906769 23 90 C23.77040851 96.06696699 24.09706112 101.88514973 24 108 C13.97402127 111.27378897 2.65814904 111.734818 -6.984375 107.12109375 C-13.30128703 103.60761749 -15.68667919 99.72450608 -18 93 C-19.09026898 88.67874002 -19.14514198 84.45241922 -19.1328125 80.0234375 C-19.13376923 79.25754303 -19.13472595 78.49164856 -19.13571167 77.70254517 C-19.13639044 76.08375974 -19.13455732 74.46497156 -19.13037109 72.84619141 C-19.12506283 70.4039068 -19.13030339 67.96180984 -19.13671875 65.51953125 C-19.13987363 57.28087603 -18.92729304 49.19844801 -18 41 C-22.29 41 -26.58 41 -31 41 C-31.8372965 35.97622101 -32.0861953 31.99932751 -32 27 C-27.05 27 -22.1 27 -17 27 C-17 19.41 -17 11.82 -17 4 C-4.5 0 -4.5 0 0 0 Z " fill="#129984" transform="translate(736,607)"/>
<path d="M0 0 C6.27 0 12.54 0 19 0 C19.09055379 12.08335886 19.1638618 24.16649044 19.20724869 36.25011253 C19.2280776 41.86169469 19.25630944 47.47303161 19.30175781 53.08447266 C19.34538299 58.50504576 19.3691724 63.92538374 19.37950897 69.34611893 C19.38687046 71.4088778 19.40124547 73.47162455 19.42292023 75.53428268 C19.4521758 78.43507939 19.45594677 81.33491815 19.45410156 84.23583984 C19.47567322 85.50036484 19.47567322 85.50036484 19.49768066 86.79043579 C19.43536165 95.91024136 16.17528776 103.70438712 9.91796875 110.30859375 C1.8269529 117.44384805 -7.76918347 117.18868309 -18 117 C-17.88628503 114.70774565 -17.75869036 112.41617612 -17.625 110.125 C-17.55539062 108.84882812 -17.48578125 107.57265625 -17.4140625 106.2578125 C-17 103 -17 103 -15 101 C-12.48898221 100.25487808 -9.96177713 99.66421062 -7.41015625 99.07421875 C-4.18101146 97.63497269 -3.53320675 96.15880937 -2 93 C-1.53861473 89.93035841 -1.53861473 89.93035841 -1.58349609 86.58691406 C-1.56692963 85.30657288 -1.55036316 84.02623169 -1.53329468 82.70709229 C-1.52983347 81.30993695 -1.52655283 79.91278115 -1.5234375 78.515625 C-1.50908853 77.0580708 -1.4933247 75.60052992 -1.47622681 74.14300537 C-1.43435678 70.29258955 -1.40941991 66.44225575 -1.38873291 62.5916748 C-1.35311315 56.51795167 -1.29163014 50.44439538 -1.23233795 44.37086487 C-1.21809486 42.88652646 -1.2044971 41.40218171 -1.19155121 39.91783142 C-1.07396016 26.59824004 -0.64666887 13.30509686 0 0 Z " fill="#169A85" transform="translate(364,631)"/>
<path d="M0 0 C5.94 0 11.88 0 18 0 C18 4.95 18 9.9 18 15 C18.66 15 19.32 15 20 15 C20.226875 14.278125 20.45375 13.55625 20.6875 12.8125 C23.41521497 6.96739649 29.03582457 2.393649 35 0 C38.77886541 -0.39882485 42.18316349 -0.23855228 46 0 C46 5.94 46 11.88 46 18 C43.81375 18.0825 41.6275 18.165 39.375 18.25 C33.83182531 18.65791507 30.12248205 18.98600432 26 23 C20.0975129 30.37810887 19.69397557 37.67310976 19.5859375 46.74609375 C19.56657135 47.75720718 19.5472052 48.76832062 19.5272522 49.81007385 C19.4677801 53.01913182 19.42120084 56.22822628 19.375 59.4375 C19.33679043 61.62175988 19.29773698 63.80600517 19.2578125 65.99023438 C19.16210522 71.32670354 19.07795512 76.66324319 19 82 C13.06 82 7.12 82 1 82 C0.67 54.94 0.34 27.88 0 0 Z " fill="#129984" transform="translate(481,632)"/>
<path d="M0 0 C5.19611221 -0.04947953 10.39208691 -0.08575727 15.58837891 -0.10986328 C17.35565582 -0.11991384 19.12291613 -0.13355642 20.89013672 -0.15087891 C23.43200785 -0.17516885 25.97365889 -0.18649255 28.515625 -0.1953125 C29.69865204 -0.21079636 29.69865204 -0.21079636 30.90557861 -0.22659302 C38.49483791 -0.2281413 38.49483791 -0.2281413 41 2 C42.26454926 6.50001383 42.14649097 11.12228939 42.1328125 15.76953125 C42.13376923 16.49113937 42.13472595 17.2127475 42.13571167 17.95622253 C42.13638828 19.46975798 42.13457041 20.9832964 42.13037109 22.49682617 C42.12497607 24.82281901 42.13035356 27.14862217 42.13671875 29.47460938 C42.13605864 30.94791709 42.13477888 32.4212247 42.1328125 33.89453125 C42.13483673 34.59238235 42.13686096 35.29023346 42.13894653 36.00923157 C42.1149786 40.8850214 42.1149786 40.8850214 41 42 C38.72965513 42.10046613 36.45615954 42.1308169 34.18359375 42.1328125 C33.49370865 42.13376923 32.80382355 42.13472595 32.09303284 42.13571167 C30.62606719 42.13639396 29.15909856 42.13453632 27.69213867 42.13037109 C25.47111996 42.12508009 23.25030878 42.13028462 21.02929688 42.13671875 C19.60156206 42.13605687 18.17382737 42.13477343 16.74609375 42.1328125 C15.45372803 42.13168457 14.1613623 42.13055664 12.82983398 42.12939453 C1.75522861 41.75522861 1.75522861 41.75522861 0 40 C-0.08868299 37.04294679 -0.11520296 34.10934944 -0.09765625 31.15234375 C-0.0962413 30.2659169 -0.09482635 29.37949005 -0.09336853 28.46620178 C-0.08775215 25.62326746 -0.07519691 22.78041069 -0.0625 19.9375 C-0.05748711 18.01497509 -0.05292384 16.09244896 -0.04882812 14.16992188 C-0.03777741 9.44658451 -0.02050183 4.72330542 0 0 Z " fill="#039877" transform="translate(518,462)"/>
<path d="M0 0 C5.19611221 -0.04947953 10.39208691 -0.08575727 15.58837891 -0.10986328 C17.35565582 -0.11991384 19.12291613 -0.13355642 20.89013672 -0.15087891 C23.43200785 -0.17516885 25.97365889 -0.18649255 28.515625 -0.1953125 C29.69865204 -0.21079636 29.69865204 -0.21079636 30.90557861 -0.22659302 C38.0020959 -0.22804077 38.0020959 -0.22804077 41 2 C44.36940321 13.74971377 42.08820861 28.88013683 42 41 C39.21619663 42.39190168 36.92444609 42.12973572 33.8125 42.1328125 C32.55566406 42.13410156 31.29882812 42.13539063 30.00390625 42.13671875 C29.34535645 42.13462402 28.68680664 42.1325293 28.00830078 42.13037109 C26.03548769 42.12509491 24.06265504 42.13080623 22.08984375 42.13671875 C2.11639989 42.11639989 2.11639989 42.11639989 0 40 C-0.08868299 37.04294679 -0.11520296 34.10934944 -0.09765625 31.15234375 C-0.0962413 30.2659169 -0.09482635 29.37949005 -0.09336853 28.46620178 C-0.08775215 25.62326746 -0.07519691 22.78041069 -0.0625 19.9375 C-0.05748711 18.01497509 -0.05292384 16.09244896 -0.04882812 14.16992188 C-0.03777741 9.44658451 -0.02050183 4.72330542 0 0 Z " fill="#05997B" transform="translate(464,462)"/>
<path d="M0 0 C4.55320682 -0.04979112 9.10625181 -0.08590298 13.65966797 -0.10986328 C15.20559453 -0.11986197 16.75150246 -0.13346538 18.29736328 -0.15087891 C20.53162255 -0.17539951 22.76562975 -0.18654451 25 -0.1953125 C25.68054443 -0.20563507 26.36108887 -0.21595764 27.06225586 -0.22659302 C32.05208157 -0.22773496 36.26727974 0.52167359 41 2 C42.63945963 5.27891925 42.12030178 8.90613534 42.09765625 12.5078125 C42.0962413 13.34843231 42.09482635 14.18905212 42.09336853 15.05514526 C42.08776237 17.74513275 42.07520886 20.43503759 42.0625 23.125 C42.05748579 24.94661338 42.05292275 26.76822807 42.04882812 28.58984375 C42.03779094 33.05992777 42.0205222 37.52994986 42 42 C36.32169922 42.02464705 30.64342931 42.04283462 24.96508789 42.05493164 C23.03181415 42.05997256 21.09854424 42.06680519 19.1652832 42.07543945 C16.39273128 42.08751565 13.62022959 42.09323057 10.84765625 42.09765625 C9.54297142 42.10539818 9.54297142 42.10539818 8.21192932 42.11329651 C6.14094186 42.11349185 4.07005676 42.06208168 2 42 C0.4910923 40.4910923 0.78699279 39.1194685 0.68359375 37.01171875 C0.6206311 35.74751099 0.6206311 35.74751099 0.55639648 34.45776367 C0.49754272 33.08648315 0.49754272 33.08648315 0.4375 31.6875 C0.3950415 30.75719971 0.35258301 29.82689941 0.30883789 28.8684082 C-0.09387621 19.2445945 -0.09309383 9.63003921 0 0 Z " fill="#029876" transform="translate(518,407)"/>
<path d="M0 0 C6.373125 -0.061875 12.74625 -0.12375 19.3125 -0.1875 C22.32564331 -0.22846802 22.32564331 -0.22846802 25.3996582 -0.27026367 C26.9916931 -0.27902543 28.5837347 -0.2866701 30.17578125 -0.29296875 C31.00251343 -0.30831665 31.82924561 -0.32366455 32.68103027 -0.33947754 C38.53992941 -0.34216141 38.53992941 -0.34216141 40.72375488 1.28198242 C42.96187095 4.29482274 42.36143405 7.99858309 42.29296875 11.60546875 C42.28872391 12.44467361 42.28447906 13.28387848 42.28010559 14.14851379 C42.26331464 16.82850245 42.2256623 19.5077387 42.1875 22.1875 C42.17245367 24.00454643 42.15876518 25.82160465 42.14648438 27.63867188 C42.11340982 32.09273776 42.06162513 36.54624132 42 41 C36.34000977 41.02467467 30.68005068 41.04284788 25.02001953 41.05493164 C23.09358169 41.05996787 21.16714769 41.06679712 19.24072266 41.07543945 C16.47557632 41.08753608 13.71048042 41.09323533 10.9453125 41.09765625 C9.6483696 41.10539818 9.6483696 41.10539818 8.32522583 41.11329651 C2.22774341 41.11387171 2.22774341 41.11387171 0 40 C0 26.8 0 13.6 0 0 Z " fill="#03997B" transform="translate(464,408)"/>
<path d="M0 0 C4.55425881 -0.09231606 9.1052156 -0.17179505 13.65966797 -0.21972656 C15.20567887 -0.23972503 16.75161527 -0.26693331 18.29736328 -0.30175781 C34.33491695 -0.65377642 34.33491695 -0.65377642 41 4 C43.87813572 7.23790269 44.89087771 9.14261061 45.4375 13.4375 C44.7658394 18.90673629 43.31116837 23.13341903 39.125 26.8125 C33.8779676 30.48542268 30.13253815 31.24800443 23.73046875 31.1953125 C22.48418701 31.19031738 21.23790527 31.18532227 19.95385742 31.18017578 C17.5945105 31.15286377 17.5945105 31.15286377 15.1875 31.125 C7.6696875 31.063125 7.6696875 31.063125 0 31 C0 20.77 0 10.54 0 0 Z " fill="#F5F4F0" transform="translate(120,665)"/>
<path d="M0 0 C4.57211069 -0.06915798 9.14238114 -0.12880076 13.71459961 -0.16479492 C15.2673968 -0.17981105 16.82015209 -0.20023028 18.37280273 -0.22631836 C20.61452624 -0.26302073 22.85568539 -0.27979787 25.09765625 -0.29296875 C25.78336197 -0.30845261 26.46906769 -0.32393646 27.17555237 -0.33988953 C32.24466404 -0.34162946 35.59190873 0.66913872 40 3 C43.02571989 7.29457017 43.55531409 10.81706852 43 16 C41.16834944 21.18967659 38.90920457 23.54539771 34 26 C26.30267089 28.00433557 18.7208455 28.25583128 10.8125 28.125 C7.244375 28.08375 3.67625 28.0425 0 28 C0 18.76 0 9.52 0 0 Z " fill="#F4F3F0" transform="translate(120,620)"/>
<path d="M0 0 C0.45391407 6.35479694 -0.23922563 10.75580907 -4 16 C-9.04346439 21.35351343 -12.53675097 23.72070572 -19.875 24.3125 C-24.1859777 24.27221049 -26.67018215 22.76131236 -30 20 C-31.73263912 16.53472176 -31.4719774 12.78892972 -31 9 C-28.61922604 4.85568977 -26.44504578 3.46747402 -22 2 C-19.34268041 1.5548234 -16.73457568 1.17768638 -14.0625 0.875 C-13.37220703 0.78863281 -12.68191406 0.70226562 -11.97070312 0.61328125 C-7.95872958 0.13412612 -4.03877255 -0.08848641 0 0 Z " fill="#F3F4F0" transform="translate(820,677)"/>
<path d="M0 0 C-0.45412932 7.92377357 -1.24826521 13.70930071 -7.375 19.25 C-12.44810432 23.30423818 -16.42424342 24.57682075 -23 24 C-26.98066095 22.42275698 -28.60667274 21.58999089 -31 18 C-31.69748057 13.6691323 -31.53067014 10.06134028 -29.5625 6.125 C-21.53134777 -0.5349799 -9.92898802 -0.18387015 0 0 Z " fill="#F4F3F0" transform="translate(447,677)"/>
<path d="M0 0 C0.63520168 6.09793611 0.05237855 10.1421178 -3.49609375 15.20703125 C-6.74960297 19.08589029 -10.42580178 22.768056 -15.64453125 23.23828125 C-24.25210483 23.43993834 -24.25210483 23.43993834 -28.1875 21.125 C-31.00405515 17.82283189 -31.39914647 15.40495074 -31.3515625 11.03515625 C-30.7531671 7.57111178 -28.68639139 6.0758479 -26 4 C-23.23623148 2.41818054 -20.97251096 1.69455658 -17.8125 1.3671875 C-17.03132812 1.28339844 -16.25015625 1.19960938 -15.4453125 1.11328125 C-14.23488281 0.99533203 -14.23488281 0.99533203 -13 0.875 C-12.19304688 0.78863281 -11.38609375 0.70226562 -10.5546875 0.61328125 C-6.99619409 0.24333887 -3.58695765 0 0 0 Z " fill="#F5F4F0" transform="translate(585,678)"/>
<path d="M0 0 C-0.17466442 6.859548 -1.66537416 11.63042136 -6 17 C-10.23561945 21.02383848 -14.15981231 23.0604844 -20 23.3125 C-23.72784238 23.21402869 -26.02984089 22.35865576 -29 20 C-31.47155943 16.29266085 -31.65621517 13.29905063 -31 9 C-28.76560765 4.81051434 -25.97117052 3.04987745 -21.48046875 1.55859375 C-14.46381939 -0.02153359 -7.16295149 -0.05377591 0 0 Z " fill="#F3F4F0" transform="translate(241,677)"/>
<path d="M0 0 C3.76591285 3.2279253 4.48938813 4.75826939 4.9375 9.6875 C4.49731816 14.70557298 2.83808414 16.96759677 -0.5625 20.5625 C-4.2030993 22.74685958 -7.28729583 23.17793285 -11.375 22.25 C-14.70762829 20.4628323 -16.88343441 18.12141173 -18.75 14.8125 C-19.90203154 10.0891707 -19.97059851 7.35611151 -17.625 3 C-12.82446853 -2.86731624 -6.6135728 -3.42925997 0 0 Z " fill="#139984" transform="translate(379.375,597.75)"/>
<path d="M0 0 C4.55320682 -0.04979112 9.10625181 -0.08590298 13.65966797 -0.10986328 C15.20559453 -0.11986197 16.75150246 -0.13346538 18.29736328 -0.15087891 C20.53162255 -0.17539951 22.76562975 -0.18654451 25 -0.1953125 C25.68054443 -0.20563507 26.36108887 -0.21595764 27.06225586 -0.22659302 C32.05208157 -0.22773496 36.26727974 0.52167359 41 2 C42.63945963 5.27891925 42.12030178 8.90613534 42.09765625 12.5078125 C42.0962413 13.34843231 42.09482635 14.18905212 42.09336853 15.05514526 C42.08776237 17.74513275 42.07520886 20.43503759 42.0625 23.125 C42.05748579 24.94661338 42.05292275 26.76822807 42.04882812 28.58984375 C42.03779094 33.05992777 42.0205222 37.52994986 42 42 C36.32169922 42.02464705 30.64342931 42.04283462 24.96508789 42.05493164 C23.03181415 42.05997256 21.09854424 42.06680519 19.1652832 42.07543945 C16.39273128 42.08751565 13.62022959 42.09323057 10.84765625 42.09765625 C9.54297142 42.10539818 9.54297142 42.10539818 8.21192932 42.11329651 C6.14094186 42.11349185 4.07005676 42.06208168 2 42 C0.4910923 40.4910923 0.78699279 39.1194685 0.68359375 37.01171875 C0.6206311 35.74751099 0.6206311 35.74751099 0.55639648 34.45776367 C0.49754272 33.08648315 0.49754272 33.08648315 0.4375 31.6875 C0.3950415 30.75719971 0.35258301 29.82689941 0.30883789 28.8684082 C-0.09387621 19.2445945 -0.09309383 9.63003921 0 0 Z M2 2 C2 14.54 2 27.08 2 40 C6.12662095 41.03165524 9.83763314 41.12681992 14.046875 41.09765625 C14.81807678 41.0962413 15.58927856 41.09482635 16.3838501 41.09336853 C18.83927338 41.08778534 21.29460442 41.07523595 23.75 41.0625 C25.41796743 41.05748283 27.08593629 41.0529203 28.75390625 41.04882812 C32.83597287 41.03782141 36.91797081 41.02056836 41 41 C41.02483101 36.55257542 41.04292183 32.10518822 41.05493164 27.65771484 C41.05994162 26.14663998 41.06675144 24.63556991 41.07543945 23.12451172 C41.08765176 20.94497488 41.09326178 18.76550247 41.09765625 16.5859375 C41.10289307 15.2767334 41.10812988 13.9675293 41.11352539 12.61865234 C41.00972117 9.30986487 40.63432368 6.24404982 40 3 C36.30488524 1.76829508 32.89698659 1.87576624 29.05078125 1.90234375 C28.02325745 1.90385437 28.02325745 1.90385437 26.97497559 1.90539551 C24.42079998 1.91061993 21.86664828 1.92458121 19.3125 1.9375 C10.7428125 1.9684375 10.7428125 1.9684375 2 2 Z " fill="#0F9F9B" transform="translate(518,407)"/>
<path d="M0 0 C0.33 0 0.66 0 1 0 C1 17.16 1 34.32 1 52 C12.55 52 24.1 52 36 52 C36 52.66 36 53.32 36 54 C23.79 54 11.58 54 -1 54 C-1.08719543 35.95054644 -0.90197348 18.0274753 0 0 Z " fill="#0D907A" transform="translate(102,660)"/>
<path d="M0 0 C5.23273331 -0.04935824 10.46533176 -0.08569949 15.69824219 -0.10986328 C17.47919067 -0.11993431 19.26012257 -0.13359185 21.04101562 -0.15087891 C23.59769783 -0.17507913 26.15416185 -0.18647184 28.7109375 -0.1953125 C29.90944839 -0.21079636 29.90944839 -0.21079636 31.13217163 -0.22659302 C33.0895722 -0.22699226 35.04643077 -0.12241069 37 0 C37.66 0.66 38.32 1.32 39 2 C26.46 1.67 13.92 1.34 1 1 C1.33 3.97 1.66 6.94 2 10 C2.07416547 12.40662963 2.10845333 14.81490832 2.09765625 17.22265625 C2.09443359 18.50205078 2.09121094 19.78144531 2.08789062 21.09960938 C2.07951172 22.40736328 2.07113281 23.71511719 2.0625 25.0625 C2.05747314 26.41861813 2.05291234 27.77473808 2.04882812 29.13085938 C2.03712089 32.42059235 2.01918813 35.71030215 2 39 C7.28 39.33 12.56 39.66 18 40 C18 40.33 18 40.66 18 41 C15.18743719 41.02684312 12.37512759 41.04676188 9.5625 41.0625 C8.76005859 41.07087891 7.95761719 41.07925781 7.13085938 41.08789062 C5.08704779 41.0965143 3.04316098 41.0522815 1 41 C0 40 0 40 -0.11352539 36.21459961 C-0.11336622 34.52717271 -0.10766917 32.83974095 -0.09765625 31.15234375 C-0.0962413 30.2659169 -0.09482635 29.37949005 -0.09336853 28.46620178 C-0.08775215 25.62326746 -0.07519691 22.78041069 -0.0625 19.9375 C-0.05748711 18.01497509 -0.05292384 16.09244896 -0.04882812 14.16992188 C-0.03777741 9.44658451 -0.02050183 4.72330542 0 0 Z " fill="#03A2AA" transform="translate(518,462)"/>
<path d="M0 0 C8.58 0 17.16 0 26 0 C26 0.33 26 0.66 26 1 C20.82704239 2.06305116 15.87495694 2.1165001 10.625 2.0625 C6.355625 2.0315625 6.355625 2.0315625 2 2 C2 11.24 2 20.48 2 30 C9.26 29.67 16.52 29.34 24 29 C24 29.66 24 30.32 24 31 C16.08 31 8.16 31 0 31 C0 20.77 0 10.54 0 0 Z " fill="#FCFAF9" transform="translate(120,665)"/>
<path d="M0 0 C0.33 0 0.66 0 1 0 C1.02465288 4.68139254 1.04283739 9.36274759 1.05493164 14.04418945 C1.05997157 15.63794614 1.0668035 17.23169819 1.07543945 18.82543945 C1.08751999 21.11150253 1.09323155 23.39750467 1.09765625 25.68359375 C1.10281754 26.40026718 1.10797882 27.11694061 1.11329651 27.85533142 C1.11349263 29.57063672 1.06192007 31.28581266 1 33 C0 34 0 34 -3.05102539 34.11352539 C-4.39991271 34.11336634 -5.74880614 34.10767612 -7.09765625 34.09765625 C-8.16094398 34.09553383 -8.16094398 34.09553383 -9.24571228 34.09336853 C-11.51801712 34.08775443 -13.79022475 34.07519963 -16.0625 34.0625 C-17.59960796 34.05748681 -19.13671745 34.05292359 -20.67382812 34.04882812 C-24.44925642 34.03778042 -28.22461171 34.02050641 -32 34 C-32 33.67 -32 33.34 -32 33 C-25.10381142 32.09429581 -18.38791455 31.8777016 -11.4375 31.9375 C-9.92446289 31.94426758 -9.92446289 31.94426758 -8.38085938 31.95117188 C-5.92050853 31.96283231 -3.46028761 31.97919622 -1 32 C-1.01160156 31.11441406 -1.02320313 30.22882813 -1.03515625 29.31640625 C-1.10662165 19.50522798 -0.67082786 9.78689931 0 0 Z " fill="#2C9D83" transform="translate(559,470)"/>
<path d="M0 0 C0.66 0.33 1.32 0.66 2 1 C5.53018797 1.15348643 8.61527952 1.04145246 12 0 C8.57136849 3.88649224 5.00595689 4.37157745 0 5 C-6.46528751 5.30897431 -12.62833072 5.19409094 -19 4 C-19 3.67 -19 3.34 -19 3 C-17.06833984 2.80083984 -17.06833984 2.80083984 -15.09765625 2.59765625 C-13.41924638 2.41950101 -11.74086227 2.24110308 -10.0625 2.0625 C-8.78729492 1.93198242 -8.78729492 1.93198242 -7.48632812 1.79882812 C-6.67744141 1.71181641 -5.86855469 1.62480469 -5.03515625 1.53515625 C-4.2862915 1.456604 -3.53742676 1.37805176 -2.76586914 1.29711914 C-0.97859987 1.1719262 -0.97859987 1.1719262 0 0 Z " fill="#F64610" transform="translate(687,448)"/>
<path d="M0 0 C0.33 0 0.66 0 1 0 C1 3.63 1 7.26 1 11 C5.29 11 9.58 11 14 11 C14 8.03 14 5.06 14 2 C14.33 2 14.66 2 15 2 C15.33 5.63 15.66 9.26 16 13 C10.39 13 4.78 13 -1 13 C-1 4 -1 4 0 0 Z " fill="#07907B" transform="translate(823,702)"/>
<path d="M0 0 C0.33 0 0.66 0 1 0 C1 9.57 1 19.14 1 29 C6.28 29.33 11.56 29.66 17 30 C17 30.33 17 30.66 17 31 C14.18743719 31.02684312 11.37512759 31.04676188 8.5625 31.0625 C7.76005859 31.07087891 6.95761719 31.07925781 6.13085938 31.08789062 C4.08704779 31.0965143 2.04316098 31.0522815 0 31 C-1 30 -1 30 -1.02172852 27.13256836 C-0.97459717 25.88096924 -0.92746582 24.62937012 -0.87890625 23.33984375 C-0.85529526 22.67537735 -0.83168427 22.01091095 -0.80735779 21.3263092 C-0.73056315 19.19649721 -0.64660787 17.06703454 -0.5625 14.9375 C-0.50929506 13.49676209 -0.45655457 12.05600695 -0.40429688 10.61523438 C-0.27492714 7.07660687 -0.13913259 3.53825859 0 0 Z " fill="#049F97" transform="translate(519,472)"/>
<path d="M0 0 C0.33 0.99 0.66 1.98 1 3 C-2.29753599 7.12191999 -5.92430902 8.28794263 -11 9 C-13.69380705 9.13743914 -16.29955804 9.09644436 -19 9 C-18.67 8.34 -18.34 7.68 -18 7 C-15.70703125 6.5078125 -15.70703125 6.5078125 -12.8125 6.125 C-7.42556687 5.24936067 -3.91048208 3.91048208 0 0 Z " fill="#E6F0ED" transform="translate(374,740)"/>
<path d="M0 0 C3.3 0 6.6 0 10 0 C10 0.66 10 1.32 10 2 C7.36 2 4.72 2 2 2 C2 9.59 2 17.18 2 25 C1.67 25 1.34 25 1 25 C0.67 16.75 0.34 8.5 0 0 Z " fill="#FCFBFC" transform="translate(120,620)"/>
<path d="M0 0 C0.99 0.33 1.98 0.66 3 1 C2.34 1.66 1.68 2.32 1 3 C0.53619919 5.41936028 0.53619919 5.41936028 0.3671875 8.2265625 C0.24150391 9.7734375 0.24150391 9.7734375 0.11328125 11.3515625 C0.03464844 12.43179687 -0.04398437 13.51203125 -0.125 14.625 C-0.21136719 15.71296875 -0.29773438 16.8009375 -0.38671875 17.921875 C-0.59925957 20.61405877 -0.80332432 23.30661828 -1 26 C-1.33 26 -1.66 26 -2 26 C-2.2546343 22.23043131 -2.47432236 18.4596223 -2.6875 14.6875 C-2.76033203 13.61564453 -2.83316406 12.54378906 -2.90820312 11.43945312 C-2.96298828 10.41142578 -3.01777344 9.38339844 -3.07421875 8.32421875 C-3.13182373 7.37635498 -3.18942871 6.42849121 -3.2487793 5.4519043 C-3 3 -3 3 -1.49536133 1.16723633 C-1.00189209 0.78204834 -0.50842285 0.39686035 0 0 Z " fill="#FD8A0E" transform="translate(368,446)"/>
<path d="M0 0 C0.33 0 0.66 0 1 0 C1 3.63 1 7.26 1 11 C6.28 11 11.56 11 17 11 C17 11.33 17 11.66 17 12 C11.39 12 5.78 12 0 12 C-0.33 10.02 -0.66 8.04 -1 6 C-1.66 5.67 -2.32 5.34 -3 5 C-1.125 1.125 -1.125 1.125 0 0 Z " fill="#DBE7E2" transform="translate(586,704)"/>
<path d="M0 0 C0.7425 0.66 1.485 1.32 2.25 2 C6.94531961 5.22094389 12.55789549 4.3170158 18 4 C15.28974315 6.23684954 14.23254691 6.97416145 10.625 7.375 C6.6848184 6.96739501 4.29044179 6.19362786 1 4 C0.125 1.8125 0.125 1.8125 0 0 Z " fill="#DEECEB" transform="translate(417,694)"/>
<path d="M0 0 C0.66 0 1.32 0 2 0 C2.06058594 0.62648438 2.12117188 1.25296875 2.18359375 1.8984375 C2.26738281 2.71570313 2.35117187 3.53296875 2.4375 4.375 C2.51871094 5.18710937 2.59992188 5.99921875 2.68359375 6.8359375 C2.89090114 9.04272805 2.89090114 9.04272805 4 11 C3.0625 13.125 3.0625 13.125 2 15 C1.34 15 0.68 15 0 15 C0 10.05 0 5.1 0 0 Z " fill="#D0E0DE" transform="translate(499,632)"/>
<path d="M0 0 C0.99 1.0209375 0.99 1.0209375 2 2.0625 C5.49468234 5.56725347 9.25130779 8.77221788 13 12 C12.67 12.99 12.34 13.98 12 15 C11.31292969 14.30132812 10.62585938 13.60265625 9.91796875 12.8828125 C9.01691406 11.97273438 8.11585938 11.06265625 7.1875 10.125 C6.29417969 9.22007812 5.40085937 8.31515625 4.48046875 7.3828125 C2.04361667 4.90168486 2.04361667 4.90168486 -1 3 C-0.67 2.01 -0.34 1.02 0 0 Z " fill="#F5EBDE" transform="translate(693,395)"/>
<path d="M0 0 C3.12270026 1.41115314 5.49653681 3.110624 8.0625 5.375 C8.73410156 5.96023438 9.40570312 6.54546875 10.09765625 7.1484375 C11.97541411 8.9760704 13.48949607 10.86364865 15 13 C11.04322598 11.32598022 8.15535787 8.86850715 5 6 C5 5.34 5 4.68 5 4 C4.360625 3.71125 3.72125 3.4225 3.0625 3.125 C1 2 1 2 0 0 Z " fill="#FD4D0B" transform="translate(623,338)"/>
<path d="M0 0 C0.33 0.99 0.66 1.98 1 3 C-1.57404971 6.86107457 -3.61020259 6.94319692 -8 8 C-5.58443874 4.80800833 -3.31996462 2.25283313 0 0 Z " fill="#229885" transform="translate(633,606)"/>
<path d="M0 0 C0 0.66 0 1.32 0 2 C-1.0725 2.45375 -2.145 2.9075 -3.25 3.375 C-5.88062317 4.50088537 -8.46000396 5.67920206 -11 7 C-9.90537324 3.8255824 -9.01822665 3.01085843 -6.0625 1.25 C-3 0 -3 0 0 0 Z " fill="#E5EEED" transform="translate(566,680)"/>
<path d="M0 0 C0.33 0 0.66 0 1 0 C1.25 2.25 1.25 2.25 1 5 C-1 7.3125 -1 7.3125 -3 9 C-3.99 8.67 -4.98 8.34 -6 8 C-5.195625 7.236875 -4.39125 6.47375 -3.5625 5.6875 C-0.83200976 3.20569102 -0.83200976 3.20569102 0 0 Z " fill="#E5EEEC" transform="translate(383,611)"/>
<path d="M0 0 C3.94139078 1.66751148 6.7892812 4.22710649 10 7 C9.34 7.66 8.68 8.32 8 9 C6.66368764 7.6905332 5.33102075 6.37734515 4 5.0625 C3.2575 4.33160156 2.515 3.60070312 1.75 2.84765625 C0 1 0 1 0 0 Z " fill="#F6EFE4" transform="translate(631,343)"/>
<path d="M0 0 C-1 2 -1 2 -3 4 C-5.625 3.625 -5.625 3.625 -8 3 C-6.23110084 -0.53779831 -3.70375662 0 0 0 Z " fill="#0B8F78" transform="translate(631,684)"/>
<path d="M0 0 C0.66 0 1.32 0 2 0 C1.67 2.64 1.34 5.28 1 8 C0.01 8 -0.98 8 -2 8 C-1.34 5.36 -0.68 2.72 0 0 Z " fill="#E4EDEC" transform="translate(914,660)"/>
<path d="M0 0 C0.66 0.33 1.32 0.66 2 1 C-0.35968744 3.09749995 -1.54616994 3.96905704 -4.75 4.1875 C-5.86375 4.0946875 -5.86375 4.0946875 -7 4 C-6.67 3.01 -6.34 2.02 -6 1 C-4.7934375 1.0309375 -4.7934375 1.0309375 -3.5625 1.0625 C-1.06645115 1.29633621 -1.06645115 1.29633621 0 0 Z " fill="#0F927B" transform="translate(378,616)"/>
<path d="M0 0 C0 0.99 0 1.98 0 3 C-2.375 4.75 -2.375 4.75 -5 6 C-5.66 5.67 -6.32 5.34 -7 5 C-2.25 0 -2.25 0 0 0 Z " fill="#FD631A" transform="translate(483,261)"/>
</svg>
